%TF.GenerationSoftware,KiCad,Pcbnew,(5.1.12)-1*%
%TF.CreationDate,2022-01-08T10:32:31-05:00*%
%TF.ProjectId,pico_dual_sided,7069636f-5f64-4756-916c-5f7369646564,rev?*%
%TF.SameCoordinates,Original*%
%TF.FileFunction,Copper,L2,Bot*%
%TF.FilePolarity,Positive*%
%FSLAX46Y46*%
G04 Gerber Fmt 4.6, Leading zero omitted, Abs format (unit mm)*
G04 Created by KiCad (PCBNEW (5.1.12)-1) date 2022-01-08 10:32:31*
%MOMM*%
%LPD*%
G01*
G04 APERTURE LIST*
%TA.AperFunction,Profile*%
%ADD10C,0.050000*%
%TD*%
%TA.AperFunction,ComponentPad*%
%ADD11C,2.000000*%
%TD*%
%TA.AperFunction,ComponentPad*%
%ADD12R,1.700000X1.700000*%
%TD*%
%TA.AperFunction,ComponentPad*%
%ADD13O,1.700000X1.700000*%
%TD*%
%TA.AperFunction,ComponentPad*%
%ADD14R,1.800000X1.800000*%
%TD*%
%TA.AperFunction,ComponentPad*%
%ADD15C,1.800000*%
%TD*%
%TA.AperFunction,ComponentPad*%
%ADD16O,2.000000X2.000000*%
%TD*%
%TA.AperFunction,ComponentPad*%
%ADD17R,2.000000X2.000000*%
%TD*%
%TA.AperFunction,ComponentPad*%
%ADD18C,1.400000*%
%TD*%
%TA.AperFunction,ComponentPad*%
%ADD19O,1.400000X1.400000*%
%TD*%
%TA.AperFunction,ViaPad*%
%ADD20C,2.000000*%
%TD*%
%TA.AperFunction,Conductor*%
%ADD21C,1.000000*%
%TD*%
G04 APERTURE END LIST*
D10*
X65405000Y-165100000D02*
X65405000Y-45720000D01*
X65405000Y-45720000D02*
X245110000Y-45720000D01*
X245110000Y-45720000D02*
X245110000Y-165100000D01*
X245110000Y-165100000D02*
X65405000Y-165100000D01*
D11*
%TO.P,SW12,3*%
%TO.N,Net-(SW12-Pad3)*%
X119657000Y-158750000D03*
%TO.P,SW12,4*%
%TO.N,Net-(SW10-Pad4)*%
X119657000Y-163250000D03*
%TO.P,SW12,1*%
%TO.N,Net-(D14-Pad2)*%
X113157000Y-158750000D03*
%TO.P,SW12,2*%
%TO.N,Net-(SW12-Pad2)*%
X113157000Y-163250000D03*
%TD*%
%TO.P,SW39,2*%
%TO.N,Net-(SW39-Pad2)*%
X230505000Y-154995000D03*
%TO.P,SW39,1*%
%TO.N,Net-(D41-Pad2)*%
X230505000Y-150495000D03*
%TO.P,SW39,4*%
%TO.N,Net-(SW37-Pad4)*%
X237005000Y-154995000D03*
%TO.P,SW39,3*%
%TO.N,Net-(SW39-Pad3)*%
X237005000Y-150495000D03*
%TD*%
D12*
%TO.P,IC1,1*%
%TO.N,Net-(D5-Pad1)*%
X229870000Y-103505000D03*
D13*
%TO.P,IC1,2*%
%TO.N,Net-(IC1-Pad2)*%
X232410000Y-103505000D03*
%TO.P,IC1,3*%
%TO.N,Net-(IC1-Pad3)*%
X234950000Y-103505000D03*
%TO.P,IC1,4*%
%TO.N,Net-(IC1-Pad4)*%
X237490000Y-103505000D03*
%TO.P,IC1,5*%
%TO.N,Net-(IC1-Pad5)*%
X240030000Y-103505000D03*
%TO.P,IC1,6*%
%TO.N,Net-(IC1-Pad6)*%
X242570000Y-103505000D03*
%TD*%
D14*
%TO.P,D6,1*%
%TO.N,Net-(D5-Pad1)*%
X215265000Y-108585000D03*
D15*
%TO.P,D6,2*%
%TO.N,Net-(D6-Pad2)*%
X212725000Y-108585000D03*
%TD*%
D11*
%TO.P,SW1,3*%
%TO.N,Net-(SW1-Pad3)*%
X86129000Y-133985000D03*
%TO.P,SW1,4*%
%TO.N,Net-(SW1-Pad4)*%
X86129000Y-138485000D03*
%TO.P,SW1,1*%
%TO.N,Net-(D1-Pad2)*%
X79629000Y-133985000D03*
%TO.P,SW1,2*%
%TO.N,Net-(SW1-Pad2)*%
X79629000Y-138485000D03*
%TD*%
D15*
%TO.P,D5,2*%
%TO.N,Net-(D5-Pad2)*%
X205740000Y-113665000D03*
D14*
%TO.P,D5,1*%
%TO.N,Net-(D5-Pad1)*%
X208280000Y-113665000D03*
%TD*%
D12*
%TO.P,J1,1*%
%TO.N,Net-(J1-Pad1)*%
X73025000Y-46990000D03*
D13*
%TO.P,J1,2*%
%TO.N,Net-(J1-Pad2)*%
X73025000Y-49530000D03*
%TO.P,J1,3*%
%TO.N,Net-(J1-Pad3)*%
X73025000Y-52070000D03*
%TO.P,J1,4*%
%TO.N,Net-(J1-Pad4)*%
X73025000Y-54610000D03*
%TD*%
D11*
%TO.P,SW2,3*%
%TO.N,Net-(SW2-Pad3)*%
X86129000Y-142240000D03*
%TO.P,SW2,4*%
%TO.N,Net-(SW1-Pad4)*%
X86129000Y-146740000D03*
%TO.P,SW2,1*%
%TO.N,Net-(D2-Pad2)*%
X79629000Y-142240000D03*
%TO.P,SW2,2*%
%TO.N,Net-(SW2-Pad2)*%
X79629000Y-146740000D03*
%TD*%
%TO.P,SW3,2*%
%TO.N,Net-(SW3-Pad2)*%
X79629000Y-154995000D03*
%TO.P,SW3,1*%
%TO.N,Net-(D3-Pad2)*%
X79629000Y-150495000D03*
%TO.P,SW3,4*%
%TO.N,Net-(SW1-Pad4)*%
X86129000Y-154995000D03*
%TO.P,SW3,3*%
%TO.N,Net-(SW3-Pad3)*%
X86129000Y-150495000D03*
%TD*%
%TO.P,SW4,2*%
%TO.N,Net-(SW4-Pad2)*%
X79629000Y-163250000D03*
%TO.P,SW4,1*%
%TO.N,Net-(D4-Pad2)*%
X79629000Y-158750000D03*
%TO.P,SW4,4*%
%TO.N,Net-(SW1-Pad4)*%
X86129000Y-163250000D03*
%TO.P,SW4,3*%
%TO.N,Net-(SW4-Pad3)*%
X86129000Y-158750000D03*
%TD*%
%TO.P,SW5,3*%
%TO.N,Net-(SW5-Pad3)*%
X102893000Y-133985000D03*
%TO.P,SW5,4*%
%TO.N,Net-(SW5-Pad4)*%
X102893000Y-138485000D03*
%TO.P,SW5,1*%
%TO.N,Net-(D7-Pad2)*%
X96393000Y-133985000D03*
%TO.P,SW5,2*%
%TO.N,Net-(SW5-Pad2)*%
X96393000Y-138485000D03*
%TD*%
%TO.P,SW6,3*%
%TO.N,Net-(SW6-Pad3)*%
X102893000Y-142240000D03*
%TO.P,SW6,4*%
%TO.N,Net-(SW5-Pad4)*%
X102893000Y-146740000D03*
%TO.P,SW6,1*%
%TO.N,Net-(D8-Pad2)*%
X96393000Y-142240000D03*
%TO.P,SW6,2*%
%TO.N,Net-(SW6-Pad2)*%
X96393000Y-146740000D03*
%TD*%
%TO.P,SW7,3*%
%TO.N,Net-(SW7-Pad3)*%
X102893000Y-150495000D03*
%TO.P,SW7,4*%
%TO.N,Net-(SW5-Pad4)*%
X102893000Y-154995000D03*
%TO.P,SW7,1*%
%TO.N,Net-(D9-Pad2)*%
X96393000Y-150495000D03*
%TO.P,SW7,2*%
%TO.N,Net-(SW7-Pad2)*%
X96393000Y-154995000D03*
%TD*%
%TO.P,SW8,2*%
%TO.N,Net-(SW8-Pad2)*%
X96393000Y-163250000D03*
%TO.P,SW8,1*%
%TO.N,Net-(D10-Pad2)*%
X96393000Y-158750000D03*
%TO.P,SW8,4*%
%TO.N,Net-(SW5-Pad4)*%
X102893000Y-163250000D03*
%TO.P,SW8,3*%
%TO.N,Net-(SW8-Pad3)*%
X102893000Y-158750000D03*
%TD*%
%TO.P,SW9,3*%
%TO.N,Net-(SW9-Pad3)*%
X119657000Y-133985000D03*
%TO.P,SW9,4*%
%TO.N,Net-(SW10-Pad4)*%
X119657000Y-138485000D03*
%TO.P,SW9,1*%
%TO.N,Net-(D11-Pad2)*%
X113157000Y-133985000D03*
%TO.P,SW9,2*%
%TO.N,Net-(SW9-Pad2)*%
X113157000Y-138485000D03*
%TD*%
%TO.P,SW10,3*%
%TO.N,Net-(SW10-Pad3)*%
X119657000Y-142240000D03*
%TO.P,SW10,4*%
%TO.N,Net-(SW10-Pad4)*%
X119657000Y-146740000D03*
%TO.P,SW10,1*%
%TO.N,Net-(D12-Pad2)*%
X113157000Y-142240000D03*
%TO.P,SW10,2*%
%TO.N,Net-(SW10-Pad2)*%
X113157000Y-146740000D03*
%TD*%
%TO.P,SW11,2*%
%TO.N,Net-(SW11-Pad2)*%
X113157000Y-154995000D03*
%TO.P,SW11,1*%
%TO.N,Net-(D13-Pad2)*%
X113157000Y-150495000D03*
%TO.P,SW11,4*%
%TO.N,Net-(SW10-Pad4)*%
X119657000Y-154995000D03*
%TO.P,SW11,3*%
%TO.N,Net-(SW11-Pad3)*%
X119657000Y-150495000D03*
%TD*%
%TO.P,SW13,3*%
%TO.N,Net-(SW13-Pad3)*%
X136421000Y-133985000D03*
%TO.P,SW13,4*%
%TO.N,Net-(SW13-Pad4)*%
X136421000Y-138485000D03*
%TO.P,SW13,1*%
%TO.N,Net-(D15-Pad2)*%
X129921000Y-133985000D03*
%TO.P,SW13,2*%
%TO.N,Net-(SW13-Pad2)*%
X129921000Y-138485000D03*
%TD*%
%TO.P,SW14,3*%
%TO.N,Net-(SW14-Pad3)*%
X136421000Y-142240000D03*
%TO.P,SW14,4*%
%TO.N,Net-(SW13-Pad4)*%
X136421000Y-146740000D03*
%TO.P,SW14,1*%
%TO.N,Net-(D16-Pad2)*%
X129921000Y-142240000D03*
%TO.P,SW14,2*%
%TO.N,Net-(SW14-Pad2)*%
X129921000Y-146740000D03*
%TD*%
%TO.P,SW15,2*%
%TO.N,Net-(SW15-Pad2)*%
X129921000Y-154995000D03*
%TO.P,SW15,1*%
%TO.N,Net-(D17-Pad2)*%
X129921000Y-150495000D03*
%TO.P,SW15,4*%
%TO.N,Net-(SW13-Pad4)*%
X136421000Y-154995000D03*
%TO.P,SW15,3*%
%TO.N,Net-(SW15-Pad3)*%
X136421000Y-150495000D03*
%TD*%
%TO.P,SW16,2*%
%TO.N,Net-(SW16-Pad2)*%
X129921000Y-163250000D03*
%TO.P,SW16,1*%
%TO.N,Net-(D18-Pad2)*%
X129921000Y-158750000D03*
%TO.P,SW16,4*%
%TO.N,Net-(SW13-Pad4)*%
X136421000Y-163250000D03*
%TO.P,SW16,3*%
%TO.N,Net-(SW16-Pad3)*%
X136421000Y-158750000D03*
%TD*%
%TO.P,SW17,3*%
%TO.N,Net-(SW17-Pad3)*%
X153185000Y-133985000D03*
%TO.P,SW17,4*%
%TO.N,Net-(SW17-Pad4)*%
X153185000Y-138485000D03*
%TO.P,SW17,1*%
%TO.N,Net-(D19-Pad2)*%
X146685000Y-133985000D03*
%TO.P,SW17,2*%
%TO.N,Net-(SW17-Pad2)*%
X146685000Y-138485000D03*
%TD*%
%TO.P,SW18,3*%
%TO.N,Net-(SW18-Pad3)*%
X153185000Y-142240000D03*
%TO.P,SW18,4*%
%TO.N,Net-(SW17-Pad4)*%
X153185000Y-146740000D03*
%TO.P,SW18,1*%
%TO.N,Net-(D20-Pad2)*%
X146685000Y-142240000D03*
%TO.P,SW18,2*%
%TO.N,Net-(SW18-Pad2)*%
X146685000Y-146740000D03*
%TD*%
%TO.P,SW19,2*%
%TO.N,Net-(SW19-Pad2)*%
X146685000Y-154995000D03*
%TO.P,SW19,1*%
%TO.N,Net-(D21-Pad2)*%
X146685000Y-150495000D03*
%TO.P,SW19,4*%
%TO.N,Net-(SW17-Pad4)*%
X153185000Y-154995000D03*
%TO.P,SW19,3*%
%TO.N,Net-(SW19-Pad3)*%
X153185000Y-150495000D03*
%TD*%
%TO.P,SW20,2*%
%TO.N,Net-(SW20-Pad2)*%
X146685000Y-163250000D03*
%TO.P,SW20,1*%
%TO.N,Net-(D22-Pad2)*%
X146685000Y-158750000D03*
%TO.P,SW20,4*%
%TO.N,Net-(SW17-Pad4)*%
X153185000Y-163250000D03*
%TO.P,SW20,3*%
%TO.N,Net-(SW20-Pad3)*%
X153185000Y-158750000D03*
%TD*%
%TO.P,SW21,3*%
%TO.N,Net-(SW21-Pad3)*%
X169949000Y-133985000D03*
%TO.P,SW21,4*%
%TO.N,Net-(SW21-Pad4)*%
X169949000Y-138485000D03*
%TO.P,SW21,1*%
%TO.N,Net-(D23-Pad2)*%
X163449000Y-133985000D03*
%TO.P,SW21,2*%
%TO.N,Net-(SW21-Pad2)*%
X163449000Y-138485000D03*
%TD*%
%TO.P,SW22,3*%
%TO.N,Net-(SW22-Pad3)*%
X169949000Y-142240000D03*
%TO.P,SW22,4*%
%TO.N,Net-(SW21-Pad4)*%
X169949000Y-146740000D03*
%TO.P,SW22,1*%
%TO.N,Net-(D24-Pad2)*%
X163449000Y-142240000D03*
%TO.P,SW22,2*%
%TO.N,Net-(SW22-Pad2)*%
X163449000Y-146740000D03*
%TD*%
%TO.P,SW23,2*%
%TO.N,Net-(SW23-Pad2)*%
X163449000Y-154995000D03*
%TO.P,SW23,1*%
%TO.N,Net-(D25-Pad2)*%
X163449000Y-150495000D03*
%TO.P,SW23,4*%
%TO.N,Net-(SW21-Pad4)*%
X169949000Y-154995000D03*
%TO.P,SW23,3*%
%TO.N,Net-(SW23-Pad3)*%
X169949000Y-150495000D03*
%TD*%
%TO.P,SW24,2*%
%TO.N,Net-(SW24-Pad2)*%
X163449000Y-163250000D03*
%TO.P,SW24,1*%
%TO.N,Net-(D26-Pad2)*%
X163449000Y-158750000D03*
%TO.P,SW24,4*%
%TO.N,Net-(SW21-Pad4)*%
X169949000Y-163250000D03*
%TO.P,SW24,3*%
%TO.N,Net-(SW24-Pad3)*%
X169949000Y-158750000D03*
%TD*%
%TO.P,SW25,3*%
%TO.N,Net-(SW25-Pad3)*%
X186713000Y-133985000D03*
%TO.P,SW25,4*%
%TO.N,Net-(SW25-Pad4)*%
X186713000Y-138485000D03*
%TO.P,SW25,1*%
%TO.N,Net-(D27-Pad2)*%
X180213000Y-133985000D03*
%TO.P,SW25,2*%
%TO.N,Net-(SW25-Pad2)*%
X180213000Y-138485000D03*
%TD*%
%TO.P,SW26,3*%
%TO.N,Net-(SW26-Pad3)*%
X186713000Y-142240000D03*
%TO.P,SW26,4*%
%TO.N,Net-(SW25-Pad4)*%
X186713000Y-146740000D03*
%TO.P,SW26,1*%
%TO.N,Net-(D28-Pad2)*%
X180213000Y-142240000D03*
%TO.P,SW26,2*%
%TO.N,Net-(SW26-Pad2)*%
X180213000Y-146740000D03*
%TD*%
%TO.P,SW27,2*%
%TO.N,Net-(SW27-Pad2)*%
X180213000Y-154995000D03*
%TO.P,SW27,1*%
%TO.N,Net-(D29-Pad2)*%
X180213000Y-150495000D03*
%TO.P,SW27,4*%
%TO.N,Net-(SW25-Pad4)*%
X186713000Y-154995000D03*
%TO.P,SW27,3*%
%TO.N,Net-(SW27-Pad3)*%
X186713000Y-150495000D03*
%TD*%
%TO.P,SW28,2*%
%TO.N,Net-(SW28-Pad2)*%
X180213000Y-163250000D03*
%TO.P,SW28,1*%
%TO.N,Net-(D30-Pad2)*%
X180213000Y-158750000D03*
%TO.P,SW28,4*%
%TO.N,Net-(SW25-Pad4)*%
X186713000Y-163250000D03*
%TO.P,SW28,3*%
%TO.N,Net-(SW28-Pad3)*%
X186713000Y-158750000D03*
%TD*%
%TO.P,SW29,2*%
%TO.N,Net-(SW29-Pad2)*%
X196977000Y-138485000D03*
%TO.P,SW29,1*%
%TO.N,Net-(D31-Pad2)*%
X196977000Y-133985000D03*
%TO.P,SW29,4*%
%TO.N,Net-(SW29-Pad4)*%
X203477000Y-138485000D03*
%TO.P,SW29,3*%
%TO.N,Net-(SW29-Pad3)*%
X203477000Y-133985000D03*
%TD*%
%TO.P,SW30,3*%
%TO.N,Net-(SW30-Pad3)*%
X203477000Y-142240000D03*
%TO.P,SW30,4*%
%TO.N,Net-(SW29-Pad4)*%
X203477000Y-146740000D03*
%TO.P,SW30,1*%
%TO.N,Net-(D32-Pad2)*%
X196977000Y-142240000D03*
%TO.P,SW30,2*%
%TO.N,Net-(SW30-Pad2)*%
X196977000Y-146740000D03*
%TD*%
%TO.P,SW31,2*%
%TO.N,Net-(SW31-Pad2)*%
X196977000Y-154995000D03*
%TO.P,SW31,1*%
%TO.N,Net-(D33-Pad2)*%
X196977000Y-150495000D03*
%TO.P,SW31,4*%
%TO.N,Net-(SW29-Pad4)*%
X203477000Y-154995000D03*
%TO.P,SW31,3*%
%TO.N,Net-(SW31-Pad3)*%
X203477000Y-150495000D03*
%TD*%
%TO.P,SW32,2*%
%TO.N,Net-(SW32-Pad2)*%
X196977000Y-163250000D03*
%TO.P,SW32,1*%
%TO.N,Net-(D34-Pad2)*%
X196977000Y-158750000D03*
%TO.P,SW32,4*%
%TO.N,Net-(SW29-Pad4)*%
X203477000Y-163250000D03*
%TO.P,SW32,3*%
%TO.N,Net-(SW32-Pad3)*%
X203477000Y-158750000D03*
%TD*%
%TO.P,SW33,3*%
%TO.N,Net-(SW33-Pad3)*%
X220241000Y-133985000D03*
%TO.P,SW33,4*%
%TO.N,Net-(SW33-Pad4)*%
X220241000Y-138485000D03*
%TO.P,SW33,1*%
%TO.N,Net-(D35-Pad2)*%
X213741000Y-133985000D03*
%TO.P,SW33,2*%
%TO.N,Net-(SW33-Pad2)*%
X213741000Y-138485000D03*
%TD*%
%TO.P,SW34,3*%
%TO.N,Net-(SW34-Pad3)*%
X220241000Y-142240000D03*
%TO.P,SW34,4*%
%TO.N,Net-(SW33-Pad4)*%
X220241000Y-146740000D03*
%TO.P,SW34,1*%
%TO.N,Net-(D36-Pad2)*%
X213741000Y-142240000D03*
%TO.P,SW34,2*%
%TO.N,Net-(SW34-Pad2)*%
X213741000Y-146740000D03*
%TD*%
%TO.P,SW35,2*%
%TO.N,Net-(SW35-Pad2)*%
X213741000Y-154995000D03*
%TO.P,SW35,1*%
%TO.N,Net-(D37-Pad2)*%
X213741000Y-150495000D03*
%TO.P,SW35,4*%
%TO.N,Net-(SW33-Pad4)*%
X220241000Y-154995000D03*
%TO.P,SW35,3*%
%TO.N,Net-(SW35-Pad3)*%
X220241000Y-150495000D03*
%TD*%
%TO.P,SW36,2*%
%TO.N,Net-(SW36-Pad2)*%
X213741000Y-163250000D03*
%TO.P,SW36,1*%
%TO.N,Net-(D38-Pad2)*%
X213741000Y-158750000D03*
%TO.P,SW36,4*%
%TO.N,Net-(SW33-Pad4)*%
X220241000Y-163250000D03*
%TO.P,SW36,3*%
%TO.N,Net-(SW36-Pad3)*%
X220241000Y-158750000D03*
%TD*%
%TO.P,SW37,2*%
%TO.N,Net-(SW37-Pad2)*%
X230505000Y-138485000D03*
%TO.P,SW37,1*%
%TO.N,Net-(D39-Pad2)*%
X230505000Y-133985000D03*
%TO.P,SW37,4*%
%TO.N,Net-(SW37-Pad4)*%
X237005000Y-138485000D03*
%TO.P,SW37,3*%
%TO.N,Net-(SW37-Pad3)*%
X237005000Y-133985000D03*
%TD*%
%TO.P,SW38,3*%
%TO.N,Net-(SW38-Pad3)*%
X237005000Y-142240000D03*
%TO.P,SW38,4*%
%TO.N,Net-(SW37-Pad4)*%
X237005000Y-146740000D03*
%TO.P,SW38,1*%
%TO.N,Net-(D40-Pad2)*%
X230505000Y-142240000D03*
%TO.P,SW38,2*%
%TO.N,Net-(SW38-Pad2)*%
X230505000Y-146740000D03*
%TD*%
%TO.P,SW40,2*%
%TO.N,Net-(SW40-Pad2)*%
X230505000Y-163250000D03*
%TO.P,SW40,1*%
%TO.N,Net-(D42-Pad2)*%
X230505000Y-158750000D03*
%TO.P,SW40,4*%
%TO.N,Net-(SW37-Pad4)*%
X237005000Y-163250000D03*
%TO.P,SW40,3*%
%TO.N,Net-(SW40-Pad3)*%
X237005000Y-158750000D03*
%TD*%
D13*
%TO.P,U1,1*%
%TO.N,Net-(J1-Pad3)*%
X121285000Y-112395000D03*
%TO.P,U1,2*%
%TO.N,Net-(J1-Pad4)*%
X123825000Y-112395000D03*
D12*
%TO.P,U1,3*%
%TO.N,Net-(D43-Pad1)*%
X126365000Y-112395000D03*
D13*
%TO.P,U1,4*%
%TO.N,Net-(D10-Pad1)*%
X128905000Y-112395000D03*
%TO.P,U1,5*%
%TO.N,Net-(D13-Pad1)*%
X131445000Y-112395000D03*
%TO.P,U1,6*%
%TO.N,Net-(D12-Pad1)*%
X133985000Y-112395000D03*
%TO.P,U1,7*%
%TO.N,Net-(D1-Pad1)*%
X136525000Y-112395000D03*
D12*
%TO.P,U1,8*%
%TO.N,Net-(U1-Pad8)*%
X139065000Y-112395000D03*
D13*
%TO.P,U1,9*%
%TO.N,Net-(SW1-Pad4)*%
X141605000Y-112395000D03*
%TO.P,U1,10*%
%TO.N,Net-(SW5-Pad4)*%
X144145000Y-112395000D03*
%TO.P,U1,11*%
%TO.N,Net-(SW10-Pad4)*%
X146685000Y-112395000D03*
%TO.P,U1,12*%
%TO.N,Net-(SW13-Pad4)*%
X149225000Y-112395000D03*
D12*
%TO.P,U1,13*%
%TO.N,Net-(U1-Pad13)*%
X151765000Y-112395000D03*
D13*
%TO.P,U1,14*%
%TO.N,Net-(SW17-Pad4)*%
X154305000Y-112395000D03*
%TO.P,U1,15*%
%TO.N,Net-(SW21-Pad4)*%
X156845000Y-112395000D03*
%TO.P,U1,16*%
%TO.N,Net-(SW25-Pad4)*%
X159385000Y-112395000D03*
%TO.P,U1,17*%
%TO.N,Net-(SW29-Pad4)*%
X161925000Y-112395000D03*
D12*
%TO.P,U1,18*%
%TO.N,Net-(D5-Pad1)*%
X164465000Y-112395000D03*
D13*
%TO.P,U1,19*%
%TO.N,Net-(SW33-Pad4)*%
X167005000Y-112395000D03*
%TO.P,U1,20*%
%TO.N,Net-(SW37-Pad4)*%
X169545000Y-112395000D03*
%TO.P,U1,21*%
%TO.N,Net-(IC1-Pad4)*%
X169545000Y-94615000D03*
%TO.P,U1,22*%
%TO.N,Net-(IC1-Pad3)*%
X167005000Y-94615000D03*
D12*
%TO.P,U1,23*%
%TO.N,Net-(U1-Pad23)*%
X164465000Y-94615000D03*
D13*
%TO.P,U1,24*%
%TO.N,Net-(R1-Pad1)*%
X161925000Y-94615000D03*
%TO.P,U1,25*%
%TO.N,Net-(R2-Pad1)*%
X159385000Y-94615000D03*
%TO.P,U1,26*%
%TO.N,Net-(U1-Pad26)*%
X156845000Y-94615000D03*
%TO.P,U1,27*%
%TO.N,Net-(U1-Pad27)*%
X154305000Y-94615000D03*
D12*
%TO.P,U1,28*%
%TO.N,Net-(U1-Pad28)*%
X151765000Y-94615000D03*
D13*
%TO.P,U1,29*%
%TO.N,Net-(R3-Pad1)*%
X149225000Y-94615000D03*
%TO.P,U1,30*%
%TO.N,Net-(U1-Pad30)*%
X146685000Y-94615000D03*
%TO.P,U1,31*%
%TO.N,Net-(U1-Pad31)*%
X144145000Y-94615000D03*
%TO.P,U1,32*%
%TO.N,Net-(U1-Pad32)*%
X141605000Y-94615000D03*
D12*
%TO.P,U1,33*%
%TO.N,Net-(U1-Pad33)*%
X139065000Y-94615000D03*
D13*
%TO.P,U1,34*%
%TO.N,Net-(U1-Pad34)*%
X136525000Y-94615000D03*
%TO.P,U1,35*%
%TO.N,Net-(U1-Pad35)*%
X133985000Y-94615000D03*
%TO.P,U1,36*%
%TO.N,Net-(IC1-Pad6)*%
X131445000Y-94615000D03*
%TO.P,U1,37*%
%TO.N,Net-(U1-Pad37)*%
X128905000Y-94615000D03*
D12*
%TO.P,U1,38*%
%TO.N,Net-(J1-Pad1)*%
X126365000Y-94615000D03*
D13*
%TO.P,U1,39*%
%TO.N,Net-(U1-Pad39)*%
X123825000Y-94615000D03*
%TO.P,U1,40*%
%TO.N,Net-(J1-Pad2)*%
X121285000Y-94615000D03*
%TO.P,U1,41*%
%TO.N,Net-(U1-Pad41)*%
X169315000Y-106045000D03*
D12*
%TO.P,U1,42*%
%TO.N,Net-(U1-Pad42)*%
X169315000Y-103505000D03*
D13*
%TO.P,U1,43*%
%TO.N,Net-(U1-Pad43)*%
X169315000Y-100965000D03*
%TD*%
D14*
%TO.P,D43,1*%
%TO.N,Net-(D43-Pad1)*%
X89464999Y-120549999D03*
D15*
%TO.P,D43,2*%
%TO.N,Net-(D43-Pad2)*%
X86924999Y-120549999D03*
%TD*%
D16*
%TO.P,D1,2*%
%TO.N,Net-(D1-Pad2)*%
X79629000Y-133985000D03*
D17*
%TO.P,D1,1*%
%TO.N,Net-(D1-Pad1)*%
X74549000Y-133985000D03*
%TD*%
D16*
%TO.P,D2,2*%
%TO.N,Net-(D2-Pad2)*%
X79629000Y-142240000D03*
D17*
%TO.P,D2,1*%
%TO.N,Net-(D12-Pad1)*%
X74549000Y-142240000D03*
%TD*%
%TO.P,D3,1*%
%TO.N,Net-(D13-Pad1)*%
X74549000Y-150495000D03*
D16*
%TO.P,D3,2*%
%TO.N,Net-(D3-Pad2)*%
X79629000Y-150495000D03*
%TD*%
D17*
%TO.P,D4,1*%
%TO.N,Net-(D10-Pad1)*%
X74549000Y-158750000D03*
D16*
%TO.P,D4,2*%
%TO.N,Net-(D4-Pad2)*%
X79629000Y-158750000D03*
%TD*%
D17*
%TO.P,D7,1*%
%TO.N,Net-(D1-Pad1)*%
X91313000Y-133985000D03*
D16*
%TO.P,D7,2*%
%TO.N,Net-(D7-Pad2)*%
X96393000Y-133985000D03*
%TD*%
D17*
%TO.P,D8,1*%
%TO.N,Net-(D12-Pad1)*%
X91313000Y-142240000D03*
D16*
%TO.P,D8,2*%
%TO.N,Net-(D8-Pad2)*%
X96393000Y-142240000D03*
%TD*%
D17*
%TO.P,D9,1*%
%TO.N,Net-(D13-Pad1)*%
X91313000Y-150495000D03*
D16*
%TO.P,D9,2*%
%TO.N,Net-(D9-Pad2)*%
X96393000Y-150495000D03*
%TD*%
D17*
%TO.P,D10,1*%
%TO.N,Net-(D10-Pad1)*%
X91313000Y-158750000D03*
D16*
%TO.P,D10,2*%
%TO.N,Net-(D10-Pad2)*%
X96393000Y-158750000D03*
%TD*%
%TO.P,D11,2*%
%TO.N,Net-(D11-Pad2)*%
X113157000Y-133985000D03*
D17*
%TO.P,D11,1*%
%TO.N,Net-(D1-Pad1)*%
X108077000Y-133985000D03*
%TD*%
%TO.P,D12,1*%
%TO.N,Net-(D12-Pad1)*%
X108077000Y-142240000D03*
D16*
%TO.P,D12,2*%
%TO.N,Net-(D12-Pad2)*%
X113157000Y-142240000D03*
%TD*%
D17*
%TO.P,D13,1*%
%TO.N,Net-(D13-Pad1)*%
X108077000Y-150495000D03*
D16*
%TO.P,D13,2*%
%TO.N,Net-(D13-Pad2)*%
X113157000Y-150495000D03*
%TD*%
D17*
%TO.P,D14,1*%
%TO.N,Net-(D10-Pad1)*%
X108077000Y-158750000D03*
D16*
%TO.P,D14,2*%
%TO.N,Net-(D14-Pad2)*%
X113157000Y-158750000D03*
%TD*%
D17*
%TO.P,D15,1*%
%TO.N,Net-(D1-Pad1)*%
X124841000Y-133985000D03*
D16*
%TO.P,D15,2*%
%TO.N,Net-(D15-Pad2)*%
X129921000Y-133985000D03*
%TD*%
D17*
%TO.P,D16,1*%
%TO.N,Net-(D12-Pad1)*%
X124841000Y-142240000D03*
D16*
%TO.P,D16,2*%
%TO.N,Net-(D16-Pad2)*%
X129921000Y-142240000D03*
%TD*%
%TO.P,D17,2*%
%TO.N,Net-(D17-Pad2)*%
X129921000Y-150495000D03*
D17*
%TO.P,D17,1*%
%TO.N,Net-(D13-Pad1)*%
X124841000Y-150495000D03*
%TD*%
D16*
%TO.P,D18,2*%
%TO.N,Net-(D18-Pad2)*%
X129921000Y-158750000D03*
D17*
%TO.P,D18,1*%
%TO.N,Net-(D10-Pad1)*%
X124841000Y-158750000D03*
%TD*%
D16*
%TO.P,D19,2*%
%TO.N,Net-(D19-Pad2)*%
X146685000Y-133985000D03*
D17*
%TO.P,D19,1*%
%TO.N,Net-(D1-Pad1)*%
X141605000Y-133985000D03*
%TD*%
D16*
%TO.P,D20,2*%
%TO.N,Net-(D20-Pad2)*%
X146685000Y-142240000D03*
D17*
%TO.P,D20,1*%
%TO.N,Net-(D12-Pad1)*%
X141605000Y-142240000D03*
%TD*%
%TO.P,D21,1*%
%TO.N,Net-(D13-Pad1)*%
X141605000Y-150495000D03*
D16*
%TO.P,D21,2*%
%TO.N,Net-(D21-Pad2)*%
X146685000Y-150495000D03*
%TD*%
%TO.P,D22,2*%
%TO.N,Net-(D22-Pad2)*%
X146685000Y-158750000D03*
D17*
%TO.P,D22,1*%
%TO.N,Net-(D10-Pad1)*%
X141605000Y-158750000D03*
%TD*%
%TO.P,D23,1*%
%TO.N,Net-(D1-Pad1)*%
X158369000Y-133985000D03*
D16*
%TO.P,D23,2*%
%TO.N,Net-(D23-Pad2)*%
X163449000Y-133985000D03*
%TD*%
%TO.P,D24,2*%
%TO.N,Net-(D24-Pad2)*%
X163449000Y-142240000D03*
D17*
%TO.P,D24,1*%
%TO.N,Net-(D12-Pad1)*%
X158369000Y-142240000D03*
%TD*%
D16*
%TO.P,D25,2*%
%TO.N,Net-(D25-Pad2)*%
X163449000Y-150495000D03*
D17*
%TO.P,D25,1*%
%TO.N,Net-(D13-Pad1)*%
X158369000Y-150495000D03*
%TD*%
D16*
%TO.P,D26,2*%
%TO.N,Net-(D26-Pad2)*%
X163449000Y-158750000D03*
D17*
%TO.P,D26,1*%
%TO.N,Net-(D10-Pad1)*%
X158369000Y-158750000D03*
%TD*%
D16*
%TO.P,D27,2*%
%TO.N,Net-(D27-Pad2)*%
X180213000Y-133985000D03*
D17*
%TO.P,D27,1*%
%TO.N,Net-(D1-Pad1)*%
X175133000Y-133985000D03*
%TD*%
%TO.P,D28,1*%
%TO.N,Net-(D12-Pad1)*%
X175133000Y-142240000D03*
D16*
%TO.P,D28,2*%
%TO.N,Net-(D28-Pad2)*%
X180213000Y-142240000D03*
%TD*%
D17*
%TO.P,D29,1*%
%TO.N,Net-(D13-Pad1)*%
X175133000Y-150495000D03*
D16*
%TO.P,D29,2*%
%TO.N,Net-(D29-Pad2)*%
X180213000Y-150495000D03*
%TD*%
%TO.P,D30,2*%
%TO.N,Net-(D30-Pad2)*%
X180213000Y-158750000D03*
D17*
%TO.P,D30,1*%
%TO.N,Net-(D10-Pad1)*%
X175133000Y-158750000D03*
%TD*%
%TO.P,D31,1*%
%TO.N,Net-(D1-Pad1)*%
X191897000Y-133985000D03*
D16*
%TO.P,D31,2*%
%TO.N,Net-(D31-Pad2)*%
X196977000Y-133985000D03*
%TD*%
D17*
%TO.P,D32,1*%
%TO.N,Net-(D12-Pad1)*%
X191897000Y-142240000D03*
D16*
%TO.P,D32,2*%
%TO.N,Net-(D32-Pad2)*%
X196977000Y-142240000D03*
%TD*%
%TO.P,D33,2*%
%TO.N,Net-(D33-Pad2)*%
X196977000Y-150495000D03*
D17*
%TO.P,D33,1*%
%TO.N,Net-(D13-Pad1)*%
X191897000Y-150495000D03*
%TD*%
D16*
%TO.P,D34,2*%
%TO.N,Net-(D34-Pad2)*%
X196977000Y-158750000D03*
D17*
%TO.P,D34,1*%
%TO.N,Net-(D10-Pad1)*%
X191897000Y-158750000D03*
%TD*%
D16*
%TO.P,D35,2*%
%TO.N,Net-(D35-Pad2)*%
X213741000Y-133985000D03*
D17*
%TO.P,D35,1*%
%TO.N,Net-(D1-Pad1)*%
X208661000Y-133985000D03*
%TD*%
D16*
%TO.P,D36,2*%
%TO.N,Net-(D36-Pad2)*%
X213741000Y-142240000D03*
D17*
%TO.P,D36,1*%
%TO.N,Net-(D12-Pad1)*%
X208661000Y-142240000D03*
%TD*%
D16*
%TO.P,D37,2*%
%TO.N,Net-(D37-Pad2)*%
X213741000Y-150495000D03*
D17*
%TO.P,D37,1*%
%TO.N,Net-(D13-Pad1)*%
X208661000Y-150495000D03*
%TD*%
D16*
%TO.P,D38,2*%
%TO.N,Net-(D38-Pad2)*%
X213741000Y-158750000D03*
D17*
%TO.P,D38,1*%
%TO.N,Net-(D10-Pad1)*%
X208661000Y-158750000D03*
%TD*%
%TO.P,D39,1*%
%TO.N,Net-(D1-Pad1)*%
X225425000Y-133985000D03*
D16*
%TO.P,D39,2*%
%TO.N,Net-(D39-Pad2)*%
X230505000Y-133985000D03*
%TD*%
%TO.P,D40,2*%
%TO.N,Net-(D40-Pad2)*%
X230505000Y-142240000D03*
D17*
%TO.P,D40,1*%
%TO.N,Net-(D12-Pad1)*%
X225425000Y-142240000D03*
%TD*%
%TO.P,D41,1*%
%TO.N,Net-(D13-Pad1)*%
X225425000Y-150495000D03*
D16*
%TO.P,D41,2*%
%TO.N,Net-(D41-Pad2)*%
X230505000Y-150495000D03*
%TD*%
D17*
%TO.P,D42,1*%
%TO.N,Net-(D10-Pad1)*%
X225425000Y-158750000D03*
D16*
%TO.P,D42,2*%
%TO.N,Net-(D42-Pad2)*%
X230505000Y-158750000D03*
%TD*%
D18*
%TO.P,R1,1*%
%TO.N,Net-(R1-Pad1)*%
X193675000Y-113665000D03*
D19*
%TO.P,R1,2*%
%TO.N,Net-(D5-Pad2)*%
X198755000Y-113665000D03*
%TD*%
%TO.P,R2,2*%
%TO.N,Net-(D6-Pad2)*%
X198755000Y-108585000D03*
D18*
%TO.P,R2,1*%
%TO.N,Net-(R2-Pad1)*%
X193675000Y-108585000D03*
%TD*%
%TO.P,R3,1*%
%TO.N,Net-(R3-Pad1)*%
X77089000Y-120650000D03*
D19*
%TO.P,R3,2*%
%TO.N,Net-(D43-Pad2)*%
X82169000Y-120650000D03*
%TD*%
D20*
%TO.N,Net-(J1-Pad2)*%
X121285000Y-73660000D03*
X121285000Y-49530000D03*
%TO.N,Net-(J1-Pad3)*%
X70485000Y-59055000D03*
X70485000Y-78105000D03*
%TO.N,Net-(J1-Pad4)*%
X75565000Y-59055000D03*
X75565000Y-86360000D03*
%TO.N,Net-(D1-Pad1)*%
X136525000Y-120650000D03*
%TO.N,Net-(D12-Pad1)*%
X133985000Y-120650000D03*
%TO.N,Net-(D13-Pad1)*%
X131445000Y-120650000D03*
%TO.N,Net-(D10-Pad1)*%
X128905000Y-120650000D03*
%TO.N,Net-(D5-Pad1)*%
X164465000Y-118110000D03*
X208280000Y-117475000D03*
%TO.N,Net-(IC1-Pad3)*%
X234950000Y-106045000D03*
X184785000Y-88646000D03*
%TO.N,Net-(R1-Pad1)*%
X176530000Y-113665000D03*
X176530000Y-85725000D03*
%TO.N,Net-(R2-Pad1)*%
X181610000Y-83185000D03*
X181610000Y-108585000D03*
%TO.N,Net-(R3-Pad1)*%
X149225000Y-90170000D03*
%TD*%
D21*
%TO.N,Net-(J1-Pad2)*%
X121285000Y-49530000D02*
X121285000Y-73660000D01*
%TO.N,Net-(J1-Pad3)*%
X70485000Y-59055000D02*
X70485000Y-78105000D01*
%TO.N,Net-(J1-Pad4)*%
X75565000Y-86360000D02*
X75565000Y-59055000D01*
%TO.N,Net-(D1-Pad1)*%
X91313000Y-133985000D02*
X91313000Y-135890000D01*
X108077000Y-133985000D02*
X108077000Y-135890000D01*
X108077000Y-133985000D02*
X108077000Y-136525000D01*
X124841000Y-136525000D02*
X124841000Y-133985000D01*
X141605000Y-136525000D02*
X141605000Y-133985000D01*
X158369000Y-136525000D02*
X158369000Y-133985000D01*
X175133000Y-136525000D02*
X175133000Y-133985000D01*
X191897000Y-136525000D02*
X191897000Y-133985000D01*
X208661000Y-136525000D02*
X208661000Y-133985000D01*
X225425000Y-136525000D02*
X225425000Y-133985000D01*
X91313000Y-136525000D02*
X91313000Y-135890000D01*
X74549000Y-135890000D02*
X74549000Y-133985000D01*
X74549000Y-136525000D02*
X74549000Y-135890000D01*
X74599800Y-136474200D02*
X74549000Y-136525000D01*
X225425000Y-136525000D02*
X208661000Y-136525000D01*
X208661000Y-136525000D02*
X191897000Y-136525000D01*
X191897000Y-136525000D02*
X175133000Y-136525000D01*
X74650600Y-136525000D02*
X74599800Y-136474200D01*
X175133000Y-136525000D02*
X74650600Y-136525000D01*
X141605000Y-133985000D02*
X141605000Y-129667000D01*
X141605000Y-129667000D02*
X136525000Y-129667000D01*
X136525000Y-129667000D02*
X136525000Y-120650000D01*
%TO.N,Net-(D12-Pad1)*%
X74549000Y-144780000D02*
X74549000Y-142240000D01*
X91313000Y-142240000D02*
X91313000Y-144780000D01*
X108077000Y-142240000D02*
X108077000Y-144780000D01*
X124841000Y-142240000D02*
X124841000Y-144780000D01*
X141605000Y-142240000D02*
X141605000Y-144780000D01*
X158369000Y-142240000D02*
X158369000Y-144780000D01*
X175133000Y-142240000D02*
X175133000Y-144780000D01*
X191897000Y-142240000D02*
X191897000Y-144780000D01*
X208661000Y-142240000D02*
X208661000Y-144780000D01*
X225425000Y-142240000D02*
X225425000Y-144780000D01*
X133985000Y-120650000D02*
X133985000Y-120650000D01*
X71247000Y-144780000D02*
X74549000Y-144780000D01*
X74599800Y-144729200D02*
X74549000Y-144780000D01*
X74549000Y-144780000D02*
X225425000Y-144780000D01*
X133858000Y-120777000D02*
X133985000Y-120650000D01*
X133858000Y-128143000D02*
X133858000Y-120777000D01*
X71247000Y-131445000D02*
X74549000Y-128143000D01*
X74549000Y-128143000D02*
X133858000Y-128143000D01*
X71247000Y-144780000D02*
X71247000Y-131445000D01*
%TO.N,Net-(D13-Pad1)*%
X74549000Y-150495000D02*
X74549000Y-153035000D01*
X91313000Y-153035000D02*
X91313000Y-150495000D01*
X108077000Y-150495000D02*
X108077000Y-153035000D01*
X124841000Y-150495000D02*
X124841000Y-153035000D01*
X141605000Y-150495000D02*
X141605000Y-153035000D01*
X158369000Y-150495000D02*
X158369000Y-153035000D01*
X175133000Y-150495000D02*
X175133000Y-153035000D01*
X208661000Y-150495000D02*
X208661000Y-153035000D01*
X191897000Y-150495000D02*
X191897000Y-153035000D01*
X131445000Y-120650000D02*
X131445000Y-120650000D01*
X74599800Y-152984200D02*
X74549000Y-153035000D01*
X225425000Y-153035000D02*
X225425000Y-150495000D01*
X74549000Y-153035000D02*
X225425000Y-153035000D01*
X131445000Y-125349000D02*
X131445000Y-120650000D01*
X73279000Y-125349000D02*
X131445000Y-125349000D01*
X69215000Y-129413000D02*
X73279000Y-125349000D01*
X69215000Y-153035000D02*
X69215000Y-129413000D01*
X74549000Y-153035000D02*
X69215000Y-153035000D01*
%TO.N,Net-(D10-Pad1)*%
X91117999Y-158945001D02*
X91313000Y-158750000D01*
X108077000Y-158750000D02*
X108077000Y-161290000D01*
X225425000Y-161290000D02*
X225425000Y-158750000D01*
X208661000Y-158750000D02*
X208661000Y-161290000D01*
X191897000Y-158750000D02*
X191897000Y-161290000D01*
X175133000Y-158750000D02*
X175133000Y-161290000D01*
X158369000Y-158750000D02*
X158369000Y-161290000D01*
X141605000Y-158750000D02*
X141605000Y-161290000D01*
X124841000Y-158750000D02*
X124841000Y-161290000D01*
X108077000Y-161290000D02*
X109347000Y-161290000D01*
X74549000Y-158750000D02*
X74549000Y-161290000D01*
X91313000Y-158750000D02*
X91313000Y-161290000D01*
X128905000Y-120650000D02*
X128905000Y-120650000D01*
X74599800Y-161239200D02*
X74549000Y-161290000D01*
X225425000Y-161290000D02*
X74549000Y-161290000D01*
X128905000Y-123190000D02*
X128905000Y-120650000D01*
X71120000Y-123190000D02*
X128905000Y-123190000D01*
X67146010Y-127163990D02*
X71120000Y-123190000D01*
X67146010Y-161290000D02*
X67146010Y-127163990D01*
X74549000Y-161290000D02*
X67146010Y-161290000D01*
%TO.N,Net-(D5-Pad1)*%
X207645000Y-118110000D02*
X208280000Y-117475000D01*
X164465000Y-118110000D02*
X207645000Y-118110000D01*
%TO.N,Net-(IC1-Pad3)*%
X234950000Y-106045000D02*
X234950000Y-106045000D01*
X196596000Y-88646000D02*
X184785000Y-88646000D01*
X213995000Y-106045000D02*
X196596000Y-88646000D01*
X234950000Y-106045000D02*
X213995000Y-106045000D01*
%TO.N,Net-(R1-Pad1)*%
X176530000Y-113665000D02*
X176530000Y-85725000D01*
X176530000Y-85725000D02*
X176530000Y-85725000D01*
%TO.N,Net-(R2-Pad1)*%
X181610000Y-108585000D02*
X181610000Y-83185000D01*
%TO.N,Net-(R3-Pad1)*%
X107569000Y-90170000D02*
X149225000Y-90170000D01*
X77089000Y-120650000D02*
X107569000Y-90170000D01*
%TD*%
M02*
