  0
SECTION
  2
HEADER
  9
$ANGBASE
  50
0.0
  9
$ANGDIR
  70
1
  9
$MEASUREMENT
  70
1
  0
ENDSEC
  0
SECTION
  2
TABLES
  0
TABLE
  2
LTYPE
  70
4
  0
LTYPE
  5
40F
  2
CONTINUOUS
  70
0
  3
Solid line
  72
65
  73
0
  40
0.0
  0
LTYPE
  5
410
  2
DASHDOT
 70
0
  3
Dash Dot ____ _ ____ _
 72
65
 73
4
 40
2.0
 49
1.25
 49
-0.25
 49
0.25
 49
-0.25
  0
LTYPE
  5
411
  2
DASHED
 70
0
  3
Dashed __ __ __ __ __
 72
65
 73
2
 40
0.75
 49
0.5
 49
-0.25
  0
LTYPE
  5
43B
  2
DOTTED
 70
0
  3
Dotted .  .  .  .
 72
65
 73
2
 40
0.2
 49
0.0
 49
-0.2
  0
ENDTAB
  0
TABLE
  2
STYLE
  70
4
  0
STYLE
  2
KICAD
  70
0
  40
0
  41
1
  42
1
  50
0
  71
0
  3
isocp.shx
  0
STYLE
  2
KICADB
  70
0
  40
0
  41
1
  42
1
  50
0
  71
0
  3
isocp.shx
  0
STYLE
  2
KICADI
  70
0
  40
0
  41
1
  42
1
  50
15
  71
0
  3
isocp.shx
  0
STYLE
  2
KICADBI
  70
0
  40
0
  41
1
  42
1
  50
15
  71
0
  3
isocp.shx
  0
ENDTAB
  0
TABLE
  2
LAYER
  70
1
  0
LAYER
  2
BLACK
  70
0
  62
7
  6
CONTINUOUS
  0
ENDTAB
  0
ENDSEC
  0
SECTION
  2
ENTITIES
0
LINE
8
BLACK
6
CONTINUOUS
10
260.351
20
-38.075
11
260.351
21
-38.075
0
LINE
8
BLACK
6
CONTINUOUS
10
260.351
20
-38.075
11
260.355
21
-38.0754
0
LINE
8
BLACK
6
CONTINUOUS
10
260.355
20
-38.0754
11
260.36
21
-38.0768
0
LINE
8
BLACK
6
CONTINUOUS
10
260.36
20
-38.0768
11
260.364
21
-38.0791
0
LINE
8
BLACK
6
CONTINUOUS
10
260.364
20
-38.0791
11
260.368
21
-38.0822
0
LINE
8
BLACK
6
CONTINUOUS
10
260.368
20
-38.0822
11
260.371
21
-38.086
0
LINE
8
BLACK
6
CONTINUOUS
10
260.371
20
-38.086
11
260.373
21
-38.0904
0
LINE
8
BLACK
6
CONTINUOUS
10
260.373
20
-38.0904
11
260.375
21
-38.0951
0
LINE
8
BLACK
6
CONTINUOUS
10
260.375
20
-38.0951
11
260.375
21
-38.1
0
LINE
8
BLACK
6
CONTINUOUS
10
260.375
20
-38.1
11
260.375
21
-38.1012
0
LINE
8
BLACK
6
CONTINUOUS
10
260.375
20
-38.1012
11
260.375
21
-138.429
0
LINE
8
BLACK
6
CONTINUOUS
10
260.375
20
-138.429
11
260.375
21
-138.43
0
LINE
8
BLACK
6
CONTINUOUS
10
260.375
20
-138.43
11
260.375
21
-138.431
0
LINE
8
BLACK
6
CONTINUOUS
10
260.375
20
-138.431
11
260.375
21
-138.431
0
LINE
8
BLACK
6
CONTINUOUS
10
260.375
20
-138.431
11
260.375
21
-138.435
0
LINE
8
BLACK
6
CONTINUOUS
10
260.375
20
-138.435
11
260.373
21
-138.44
0
LINE
8
BLACK
6
CONTINUOUS
10
260.373
20
-138.44
11
260.371
21
-138.444
0
LINE
8
BLACK
6
CONTINUOUS
10
260.371
20
-138.444
11
260.368
21
-138.448
0
LINE
8
BLACK
6
CONTINUOUS
10
260.368
20
-138.448
11
260.364
21
-138.451
0
LINE
8
BLACK
6
CONTINUOUS
10
260.364
20
-138.451
11
260.36
21
-138.453
0
LINE
8
BLACK
6
CONTINUOUS
10
260.36
20
-138.453
11
260.355
21
-138.455
0
LINE
8
BLACK
6
CONTINUOUS
10
260.355
20
-138.455
11
260.35
21
-138.455
0
LINE
8
BLACK
6
CONTINUOUS
10
260.35
20
-138.455
11
260.349
21
-138.455
0
LINE
8
BLACK
6
CONTINUOUS
10
260.349
20
-138.455
11
190.501
21
-138.455
0
LINE
8
BLACK
6
CONTINUOUS
10
190.501
20
-138.455
11
190.5
21
-138.455
0
LINE
8
BLACK
6
CONTINUOUS
10
190.5
20
-138.455
11
190.495
21
-138.455
0
LINE
8
BLACK
6
CONTINUOUS
10
190.495
20
-138.455
11
190.49
21
-138.453
0
LINE
8
BLACK
6
CONTINUOUS
10
190.49
20
-138.453
11
190.486
21
-138.451
0
LINE
8
BLACK
6
CONTINUOUS
10
190.486
20
-138.451
11
190.482
21
-138.448
0
LINE
8
BLACK
6
CONTINUOUS
10
190.482
20
-138.448
11
190.479
21
-138.444
0
LINE
8
BLACK
6
CONTINUOUS
10
190.479
20
-138.444
11
190.477
21
-138.44
0
LINE
8
BLACK
6
CONTINUOUS
10
190.477
20
-138.44
11
190.475
21
-138.435
0
LINE
8
BLACK
6
CONTINUOUS
10
190.475
20
-138.435
11
190.475
21
-138.43
0
LINE
8
BLACK
6
CONTINUOUS
10
190.475
20
-138.43
11
190.475
21
-138.429
0
LINE
8
BLACK
6
CONTINUOUS
10
190.475
20
-138.429
11
190.475
21
-38.1012
0
LINE
8
BLACK
6
CONTINUOUS
10
190.475
20
-38.1012
11
190.475
21
-38.1
0
LINE
8
BLACK
6
CONTINUOUS
10
190.475
20
-38.1
11
190.475
21
-38.0951
0
LINE
8
BLACK
6
CONTINUOUS
10
190.475
20
-38.0951
11
190.477
21
-38.0904
0
LINE
8
BLACK
6
CONTINUOUS
10
190.477
20
-38.0904
11
190.479
21
-38.086
0
LINE
8
BLACK
6
CONTINUOUS
10
190.479
20
-38.086
11
190.482
21
-38.0822
0
LINE
8
BLACK
6
CONTINUOUS
10
190.482
20
-38.0822
11
190.486
21
-38.0791
0
LINE
8
BLACK
6
CONTINUOUS
10
190.486
20
-38.0791
11
190.49
21
-38.0768
0
LINE
8
BLACK
6
CONTINUOUS
10
190.49
20
-38.0768
11
190.495
21
-38.0754
0
LINE
8
BLACK
6
CONTINUOUS
10
190.495
20
-38.0754
11
190.499
21
-38.075
0
LINE
8
BLACK
6
CONTINUOUS
10
190.499
20
-38.075
11
190.499
21
-38.075
0
LINE
8
BLACK
6
CONTINUOUS
10
190.499
20
-38.075
11
190.5
21
-38.0749
0
LINE
8
BLACK
6
CONTINUOUS
10
190.5
20
-38.0749
11
190.501
21
-38.075
0
LINE
8
BLACK
6
CONTINUOUS
10
190.501
20
-38.075
11
260.349
21
-38.075
0
LINE
8
BLACK
6
CONTINUOUS
10
260.349
20
-38.075
11
260.35
21
-38.0749
0
LINE
8
BLACK
6
CONTINUOUS
10
260.35
20
-38.0749
11
260.351
21
-38.075
0
LINE
8
BLACK
6
CONTINUOUS
10
190.525
20
-38.125
11
190.525
21
-138.405
0
LINE
8
BLACK
6
CONTINUOUS
10
190.525
20
-138.405
11
260.325
21
-138.405
0
LINE
8
BLACK
6
CONTINUOUS
10
260.325
20
-138.405
11
260.325
21
-38.125
0
LINE
8
BLACK
6
CONTINUOUS
10
260.325
20
-38.125
11
190.525
21
-38.125
  0
ENDSEC
  0
EOF
